<?xml version="1.0" encoding="utf-8"?><svg viewBox="0 0 60 80" xmlns="http://www.w3.org/2000/svg" xmlns:xlink="http://www.w3.org/1999/xlink"><style>:root>svg{display:none}:root>svg:target{display:block}</style><svg fill="none" viewBox="0 0 12 14" id="arrow" xmlns="http://www.w3.org/2000/svg"><path d="M9 1 3 6.75l6 5.75" stroke="#848E9F" stroke-width="1.5" stroke-linecap="round"/></svg><svg fill="none" viewBox="0 0 60 16" id="github" xmlns="http://www.w3.org/2000/svg"><path d="M11.556 6.848H6.515a.237.237 0 0 0-.167.068.23.23 0 0 0-.069.165v2.43a.237.237 0 0 0 .236.232H8.48v3.02s-.441.15-1.663.15c-1.44 0-3.452-.519-3.452-4.883S5.46 3.092 7.429 3.092c1.703 0 2.436.295 2.903.438.146.043.283-.1.283-.229l.562-2.349a.216.216 0 0 0-.09-.18C10.897.636 9.74 0 6.819 0 3.453 0 0 1.412 0 8.2 0 14.99 3.953 16 7.284 16c2.759 0 4.432-1.162 4.432-1.162.068-.038.076-.133.076-.177v-7.58a.23.23 0 0 0-.07-.165.237.237 0 0 0-.166-.068ZM37.306.58h-2.84a.239.239 0 0 0-.216.144.23.23 0 0 0-.018.09l.001 5.41h-4.425V.814a.229.229 0 0 0-.068-.165.235.235 0 0 0-.166-.07h-2.839a.239.239 0 0 0-.166.07.232.232 0 0 0-.069.165v14.649c0 .129.106.234.235.234h2.839a.239.239 0 0 0 .217-.145.23.23 0 0 0 .017-.09V9.197h4.425l-.007 6.265c0 .13.105.235.235.235h2.845a.238.238 0 0 0 .217-.145.23.23 0 0 0 .017-.09V.813a.233.233 0 0 0-.234-.233ZM15.083.913c-1.01 0-1.83.814-1.83 1.823 0 1.006.82 1.823 1.83 1.823 1.011 0 1.83-.817 1.83-1.823 0-1.009-.82-1.823-1.83-1.823Zm1.393 4.464h-2.83c-.13 0-.246.132-.246.26v9.688c0 .285.18.37.413.37h2.549c.28 0 .349-.136.349-.374V5.61a.23.23 0 0 0-.145-.215.238.238 0 0 0-.09-.019Zm31.854.022h-2.818a.239.239 0 0 0-.216.145.229.229 0 0 0-.018.089v7.183s-.716.516-1.731.516c-1.016 0-1.285-.454-1.285-1.435V5.633a.23.23 0 0 0-.144-.216.238.238 0 0 0-.09-.018h-2.86a.238.238 0 0 0-.166.07.232.232 0 0 0-.068.164v6.738c0 2.913 1.647 3.626 3.912 3.626 1.858 0 3.356-1.013 3.356-1.013s.071.534.104.597a.249.249 0 0 0 .207.127l1.819-.008a.24.24 0 0 0 .218-.145.23.23 0 0 0 .018-.09l-.002-9.833a.233.233 0 0 0-.07-.165.239.239 0 0 0-.165-.069h-.001Zm7.7-.33c-1.6 0-2.689.705-2.689.705V.814a.229.229 0 0 0-.068-.166.236.236 0 0 0-.166-.069H50.26a.238.238 0 0 0-.219.145.23.23 0 0 0-.017.09v14.648a.23.23 0 0 0 .145.216c.029.012.06.018.09.018h1.976c.09 0 .156-.045.206-.124.048-.08.12-.676.12-.676s1.163 1.087 3.367 1.087c2.587 0 4.071-1.293 4.071-5.808 0-4.516-2.37-5.106-3.971-5.106Zm-1.113 8.254a3.41 3.41 0 0 1-1.64-.466v-4.64s.655-.394 1.457-.466c1.014-.09 1.992.213 1.992 2.6 0 2.516-.44 3.013-1.808 2.972Zm-30.008-.055c-.124 0-.441.05-.768.05-1.046 0-1.4-.48-1.4-1.1v-4.12h2.13a.238.238 0 0 0 .217-.144.227.227 0 0 0 .018-.09V5.609a.228.228 0 0 0-.069-.164.236.236 0 0 0-.167-.069h-2.13l-.003-2.774c0-.105-.054-.158-.178-.158h-2.902c-.113 0-.173.05-.173.156v2.867s-1.455.346-1.553.374a.235.235 0 0 0-.17.223v1.801a.232.232 0 0 0 .235.234h1.488v4.334c0 3.22 2.29 3.535 3.835 3.535.705 0 1.55-.223 1.69-.274.084-.03.133-.117.133-.21l.002-1.982a.236.236 0 0 0-.07-.163.242.242 0 0 0-.166-.07h.001Z" fill="#848E9F"/></svg><svg viewBox="0 0 40 40" id="github-ico" xmlns="http://www.w3.org/2000/svg"><path fill-rule="evenodd" clip-rule="evenodd" d="M20 .473C12.66.473 6.705 6.425 6.705 13.768c0 5.874 3.81 10.858 9.092 12.616.665.123.909-.289.909-.64 0-.317-.013-1.364-.018-2.475-3.7.804-4.48-1.569-4.48-1.569-.604-1.537-1.476-1.945-1.476-1.945-1.206-.825.09-.809.09-.809 1.336.094 2.039 1.37 2.039 1.37 1.186 2.033 3.11 1.445 3.869 1.106.12-.86.464-1.447.844-1.778-2.953-.336-6.057-1.477-6.057-6.571 0-1.452.519-2.638 1.37-3.569-.139-.335-.594-1.687.128-3.519 0 0 1.117-.356 3.657 1.364A12.743 12.743 0 0 1 20 6.9c1.13.006 2.268.154 3.33.448 2.538-1.72 3.653-1.363 3.653-1.363.724 1.831.269 3.183.13 3.519.853.93 1.369 2.116 1.369 3.568 0 5.107-3.11 6.23-6.071 6.56.477.412.902 1.222.902 2.462 0 1.779-.015 3.21-.015 3.648 0 .353.239.768.913.638 5.28-1.76 9.084-6.742 9.084-12.614C33.295 6.425 27.343.473 20 .473Z"/><path d="M11.741 19.561c-.03.067-.134.086-.228.041-.097-.044-.15-.133-.12-.2.029-.067.133-.087.23-.041.097.044.152.134.119.2Zm.539.602c-.064.058-.188.031-.272-.062-.087-.093-.103-.217-.039-.276.065-.06.185-.032.272.061.087.094.104.217.038.276Zm.524.765c-.082.057-.215.003-.297-.115-.082-.118-.082-.26.001-.316.083-.057.214-.006.297.111.082.12.082.262-.001.32Zm.718.74c-.073.08-.228.059-.342-.051-.116-.107-.148-.26-.075-.34.074-.08.23-.058.344.051.116.107.15.26.073.34Zm.991.43c-.033.104-.182.15-.332.107-.151-.046-.25-.168-.22-.273.032-.105.183-.154.334-.107.15.045.249.166.218.272Zm1.088.079c.004.11-.124.2-.282.202-.16.004-.288-.085-.29-.193 0-.11.125-.2.284-.203.158-.003.287.085.287.194Zm1.012-.172c.019.107-.09.216-.248.245-.154.03-.297-.037-.317-.143-.018-.11.093-.219.247-.248.157-.027.298.037.318.146ZM7.767 31.012H4.423a.156.156 0 0 0-.156.156v1.635a.156.156 0 0 0 .156.157h1.305v2.03s-.293.1-1.104.1c-.955 0-2.29-.348-2.29-3.283s1.39-3.322 2.696-3.322c1.13 0 1.615.199 1.925.295.097.03.188-.068.188-.154l.373-1.58a.146.146 0 0 0-.06-.122c-.126-.09-.893-.518-2.831-.518-2.232 0-4.522.95-4.522 5.515 0 4.566 2.621 5.246 4.83 5.246 1.83 0 2.94-.782 2.94-.782.045-.024.05-.089.05-.118v-5.099a.156.156 0 0 0-.156-.156Zm17.079-4.216h-1.884a.156.156 0 0 0-.155.157v3.639h-2.934v-3.639a.155.155 0 0 0-.156-.157h-1.883a.155.155 0 0 0-.155.157v9.853c0 .087.07.157.155.157h1.883a.157.157 0 0 0 .155-.157V32.59h2.936l-.006 4.215c0 .087.07.157.157.157h1.887a.158.158 0 0 0 .143-.097.156.156 0 0 0 .012-.06v-9.853a.155.155 0 0 0-.155-.157Zm-14.74.224a1.22 1.22 0 0 0-1.213 1.226 1.22 1.22 0 0 0 1.213 1.226c.67 0 1.214-.55 1.214-1.226a1.22 1.22 0 0 0-1.214-1.226Zm.924 3.002H9.153c-.086 0-.163.09-.163.175v6.517c0 .191.12.248.274.248h1.69c.186 0 .232-.091.232-.252V30.18a.157.157 0 0 0-.156-.157Zm21.127.015h-1.869a.157.157 0 0 0-.155.158v4.83s-.475.348-1.148.348c-.674 0-.852-.306-.852-.965v-4.213a.156.156 0 0 0-.156-.158h-1.896a.157.157 0 0 0-.156.158v4.531c0 1.96 1.092 2.44 2.595 2.44 1.232 0 2.226-.682 2.226-.682s.047.36.069.401a.165.165 0 0 0 .137.086l1.206-.006a.156.156 0 0 0 .157-.157l-.001-6.614a.158.158 0 0 0-.157-.157Zm5.107-.221c-1.062 0-1.783.473-1.783.473v-3.336a.155.155 0 0 0-.096-.145.157.157 0 0 0-.06-.013h-1.888a.156.156 0 0 0-.156.158v9.853a.156.156 0 0 0 .157.157h1.31c.059 0 .103-.03.136-.084.032-.053.08-.454.08-.454s.771.731 2.233.731c1.716 0 2.7-.87 2.7-3.907s-1.572-3.434-2.633-3.434Zm-.738 5.551a2.241 2.241 0 0 1-1.087-.314v-3.12s.434-.266.965-.314c.673-.06 1.322.143 1.322 1.748 0 1.693-.292 2.027-1.2 2Zm-19.903-.037c-.082 0-.292.034-.509.034-.694 0-.929-.323-.929-.74v-2.771h1.412a.155.155 0 0 0 .145-.097.157.157 0 0 0 .012-.06v-1.518a.156.156 0 0 0-.157-.157h-1.412l-.002-1.866c0-.07-.036-.106-.118-.106H13.14c-.075 0-.115.033-.115.105v1.928s-.965.233-1.03.252a.156.156 0 0 0-.112.15v1.211a.154.154 0 0 0 .045.11.156.156 0 0 0 .11.047h.987v2.915c0 2.166 1.519 2.378 2.544 2.378.468 0 1.028-.15 1.12-.184.057-.02.089-.079.089-.142l.001-1.332a.16.16 0 0 0-.156-.157Z"/></svg><svg fill="none" viewBox="0 0 58 80" id="no-photo" xmlns="http://www.w3.org/2000/svg"><path d="M33.675 0h-9.847l20.255 37.828-10.128 19.748h11.926a4.83 4.83 0 0 0 2.47-.677 4.537 4.537 0 0 0 1.72-1.823l7.137-13.923a7.147 7.147 0 0 0 .791-3.329 7.155 7.155 0 0 0-.853-3.315L40.936 4.243a7.942 7.942 0 0 0-3.005-3.099A8.443 8.443 0 0 0 33.675 0ZM24.328 80h9.837L13.92 42.18l10.127-19.773H12.122a4.83 4.83 0 0 0-2.47.677 4.537 4.537 0 0 0-1.72 1.823L.792 38.834A7.15 7.15 0 0 0 0 42.161a7.157 7.157 0 0 0 .85 3.315l16.213 30.266a7.945 7.945 0 0 0 3.004 3.107 8.45 8.45 0 0 0 4.261 1.15Z" fill="#1C2636"/></svg><svg viewBox="0 0 32 32" id="tg" xmlns="http://www.w3.org/2000/svg"><circle cx="16" cy="16" r="11" fill="#fff"/><path d="M16 1.333C7.902 1.333 1.335 7.9 1.335 16s6.567 14.666 14.667 14.666S30.667 24.1 30.667 16c0-8.1-6.567-14.667-14.666-14.667Zm7.204 10.048-2.407 11.342c-.178.804-.657 1-1.325.621l-3.667-2.701-1.767 1.704a.927.927 0 0 1-.734.36h-.006l.26-3.732 6.796-6.138c.294-.26-.066-.409-.456-.148l-8.395 5.287-3.618-1.13c-.782-.247-.804-.782.165-1.165l14.136-5.449c.658-.24 1.23.157 1.017 1.15l.001-.001Z"/></svg><svg viewBox="0 0 32 32" id="ws" xmlns="http://www.w3.org/2000/svg"><circle cx="16" cy="16" r="11" fill="#fff"/><path d="M16.267 1.333c-7.953 0-14.4 6.397-14.4 14.289 0 2.7.755 5.224 2.066 7.378l-2.599 7.666 7.973-2.532a14.43 14.43 0 0 0 6.96 1.777c7.953 0 14.4-6.398 14.4-14.289 0-7.892-6.447-14.289-14.4-14.289Zm7.16 19.715c-.339.84-1.87 1.607-2.547 1.642-.675.036-.694.524-4.376-1.076-3.682-1.6-5.896-5.49-6.071-5.74-.175-.25-1.426-2.033-1.359-3.828.068-1.794 1.051-2.641 1.402-2.993a1.41 1.41 0 0 1 .997-.42c.29-.005.478-.009.692-.001.215.008.537-.045.816.697.278.74.945 2.563 1.03 2.749.086.186.139.4.007.64-.131.239-.199.388-.39.594-.192.206-.404.461-.576.619-.19.174-.39.365-.19.738.201.373.894 1.595 1.95 2.602 1.357 1.294 2.528 1.723 2.888 1.92.36.196.576.174.8-.062.223-.235.959-1.03 1.218-1.386.259-.356.501-.286.834-.152.332.134 2.106 1.084 2.467 1.28.36.196.602.296.688.452.086.155.059.886-.28 1.726Z"/></svg></svg>