<svg width="150" height="99" viewBox="0 0 150 99" fill="none" xmlns="http://www.w3.org/2000/svg">
<path d="M85.0155 40.1752L91.4481 43.9227H107.541L82.2908 29.21C81.3853 28.6823 80.3844 28.3386 79.3455 28.1985C78.3067 28.0583 77.2503 28.1246 76.2372 28.3934C75.224 28.6623 74.2741 29.1284 73.4418 29.765C72.6095 30.4017 71.9114 31.1963 71.3875 32.1032L64.5537 43.9227H77.8554L79.1164 41.7209C79.4012 41.2316 79.78 40.8033 80.231 40.4606C80.682 40.1179 81.1963 39.8676 81.7444 39.724C82.2925 39.5803 82.8637 39.5463 83.425 39.6237C83.9863 39.7011 84.5268 39.8886 85.0155 40.1752Z" fill="white"/>
<path d="M107.483 37.0924L98.4758 21.5121L86.0427 0L79.3676 11.5465C78.315 13.3672 78.0274 15.5302 78.5678 17.5622C79.1082 19.5942 80.4326 21.3295 82.251 22.3884L107.483 37.0924Z" fill="white"/>
<path d="M49.9002 0.530273H42.8074L57.3951 29.0042L50.1025 43.8773H58.6999C59.3315 43.8799 59.9512 43.7049 60.4878 43.3723C61.0245 43.0397 61.4564 42.563 61.7343 41.9967L66.875 31.5159C67.2553 30.733 67.4471 29.8724 67.4352 29.0024C67.4234 28.1325 67.2082 27.2774 66.8067 26.5052L55.1294 3.72602C54.6372 2.76426 53.8884 1.95691 52.9656 1.39301C52.0429 0.829103 50.9821 0.530549 49.9002 0.530273Z" fill="white"/>
<path d="M69.9371 1.88059L65.4059 9.66144C65.0228 10.4408 64.8272 11.2987 64.8347 12.1668C64.8421 13.0349 65.0525 13.8893 65.4489 14.662L69.6338 22.8306L81.5461 0H72.9488C72.321 0.00191223 71.7064 0.179034 71.1742 0.511355C70.642 0.843676 70.2135 1.31795 69.9371 1.88059Z" fill="white"/>
<path d="M13.5711 77.7359L12.1778 73.0105H5.68483L4.29149 77.7359H0L6.40936 57.8662H11.6483L17.9741 77.7359H13.5711ZM8.97311 61.7946H8.83377L6.68803 69.3383H11.1467L8.97311 61.7946Z" fill="white"/>
<path d="M20.6652 77.7359V57.8662H24.9009V73.8929H32.3135V77.7359H20.6652Z" fill="white"/>
<path d="M35.4422 77.7359V57.8662H48.6789V61.7092H39.678V65.7799H47.3971V69.5945H39.678V73.8929H48.6789V77.7359H35.4422Z" fill="white"/>
<path d="M68.5319 77.7359H63.6273L59.4194 70.42H59.3358L55.2394 77.7359H50.6692L56.9114 67.4595L50.9758 57.8662H55.9082L59.6981 64.5843H59.7817L63.6273 57.8662H68.1975L62.2061 67.5449L68.5319 77.7359Z" fill="white"/>
<path d="M82.4703 77.7359V69.9645L75.8101 57.8662H80.5475L84.7275 65.7799H84.7832L88.796 57.8662H93.3941L86.7339 69.9361V77.7359H82.4703Z" fill="white"/>
<path d="M105.825 77.7359L104.432 73.0105H97.9392L96.5458 77.7359H92.2543L98.6637 57.8662H103.903L110.228 77.7359H105.825ZM101.227 61.7946H101.088L98.9424 69.3383H103.401L101.227 61.7946Z" fill="white"/>
<path d="M118.855 68.3419L116.988 64.3566H116.904V77.7359H112.92V57.8662H117.545L122.868 67.2602L124.735 71.2455H124.819V57.8662H128.804V77.7359H124.178L118.855 68.3419Z" fill="white"/>
<path d="M139.856 69.0821L137.321 72.2134V77.7359H133.085V57.8662H137.321V67.3171H137.488L140.247 63.4741L144.622 57.8662H149.415L142.866 66.0361L150 77.7359H145.012L139.856 69.0821Z" fill="white"/>
<path d="M53.0366 98.9999C51.9204 98.9999 51.0385 98.6789 50.3911 98.0369C49.7436 97.3949 49.4199 96.5121 49.4199 95.3885V89.7135C49.4199 88.5899 49.7436 87.7071 50.3911 87.0651C51.0385 86.4231 51.9204 86.1021 53.0366 86.1021C54.1306 86.1021 55.0012 86.4288 55.6487 87.0823C56.2961 87.7243 56.6198 88.6014 56.6198 89.7135H55.1129C55.1129 89.0026 54.9287 88.4581 54.5603 88.0797C54.2031 87.6899 53.6952 87.495 53.0366 87.495C52.378 87.495 51.859 87.6842 51.4794 88.0625C51.1111 88.4409 50.9269 88.9854 50.9269 89.6963V95.3885C50.9269 96.0993 51.1111 96.6497 51.4794 97.0395C51.859 97.4178 52.378 97.607 53.0366 97.607C53.6952 97.607 54.2031 97.4178 54.5603 97.0395C54.9287 96.6497 55.1129 96.0993 55.1129 95.3885H56.6198C56.6198 96.5006 56.2961 97.3834 55.6487 98.0369C55.0012 98.6789 54.1306 98.9999 53.0366 98.9999Z" fill="white"/>
<path d="M63.8467 98.9999C62.7527 98.9999 61.8876 98.6789 61.2514 98.0369C60.6151 97.3949 60.2969 96.5121 60.2969 95.3885V89.7135C60.2969 88.5899 60.6151 87.7071 61.2514 87.0651C61.8876 86.4231 62.7527 86.1021 63.8467 86.1021C64.9406 86.1021 65.8057 86.4231 66.442 87.0651C67.0783 87.6957 67.3964 88.5727 67.3964 89.6963V95.3885C67.3964 96.5121 67.0783 97.3949 66.442 98.0369C65.8057 98.6789 64.9406 98.9999 63.8467 98.9999ZM63.8467 97.607C64.5053 97.607 65.0076 97.4178 65.3536 97.0395C65.7108 96.6497 65.8894 96.0993 65.8894 95.3885V89.7135C65.8894 89.0026 65.7108 88.4581 65.3536 88.0797C65.0076 87.6899 64.5053 87.495 63.8467 87.495C63.1992 87.495 62.6969 87.6899 62.3397 88.0797C61.9825 88.4581 61.8039 89.0026 61.8039 89.7135V95.3885C61.8039 96.0993 61.9825 96.6497 62.3397 97.0395C62.6969 97.4178 63.1992 97.607 63.8467 97.607Z" fill="white"/>
<path d="M71.241 98.828V86.274H74.4056C75.1981 86.274 75.879 86.4288 76.4483 86.7383C77.0288 87.0479 77.4753 87.4836 77.7878 88.0453C78.1116 88.6071 78.2734 89.2721 78.2734 90.0402V95.0446C78.2734 95.8127 78.1116 96.4834 77.7878 97.0567C77.4753 97.6184 77.0288 98.0541 76.4483 98.3636C75.879 98.6732 75.1981 98.828 74.4056 98.828H71.241ZM72.7479 97.4522H74.4056C75.1423 97.4522 75.7172 97.2401 76.1302 96.8159C76.5544 96.3917 76.7665 95.8013 76.7665 95.0446V90.0402C76.7665 89.295 76.5544 88.7103 76.1302 88.2861C75.7172 87.8619 75.1423 87.6498 74.4056 87.6498H72.7479V97.4522Z" fill="white"/>
<path d="M82.2519 98.828V86.274H89.2844V87.6842H83.7421V91.5708H88.6984V92.9465H83.7421V97.4178H89.2844V98.828H82.2519Z" fill="white"/>
<path d="M92.995 98.828V86.274H96.7791C97.5047 86.274 98.141 86.4288 98.688 86.7383C99.2349 87.0364 99.6591 87.4549 99.9605 87.9937C100.262 88.5326 100.413 89.1631 100.413 89.8854C100.413 90.7338 100.195 91.4618 99.7596 92.0695C99.3354 92.6771 98.7549 93.0956 98.0182 93.3249L100.58 98.828H98.8052L96.461 93.4968H94.502V98.828H92.995ZM94.502 92.1039H96.7791C97.4042 92.1039 97.9066 91.9032 98.2861 91.502C98.6656 91.0892 98.8554 90.5504 98.8554 89.8854C98.8554 89.209 98.6656 88.6702 98.2861 88.2689C97.9066 87.8676 97.4042 87.667 96.7791 87.667H94.502V92.1039Z" fill="white"/>
</svg>
