<svg width="229" height="44" viewBox="0 0 229 44" fill="none" xmlns="http://www.w3.org/2000/svg">
<path d="M43.0155 40.1752L49.4481 43.9227H65.5406L40.2908 29.21C39.3853 28.6823 38.3844 28.3386 37.3455 28.1985C36.3067 28.0583 35.2503 28.1246 34.2372 28.3934C33.224 28.6623 32.2741 29.1284 31.4418 29.765C30.6095 30.4017 29.9114 31.1963 29.3875 32.1032L22.5537 43.9227H35.8554L37.1164 41.7209C37.4012 41.2316 37.78 40.8033 38.231 40.4606C38.682 40.1179 39.1963 39.8676 39.7444 39.724C40.2925 39.5803 40.8637 39.5463 41.425 39.6237C41.9863 39.7011 42.5268 39.8886 43.0155 40.1752Z" fill="white"/>
<path d="M65.4832 37.0924L56.4758 21.5121L44.0427 0L37.3676 11.5465C36.315 13.3672 36.0274 15.5302 36.5678 17.5622C37.1082 19.5942 38.4326 21.3295 40.251 22.3884L65.4832 37.0924Z" fill="white"/>
<path d="M7.90021 0.530273H0.807373L15.3951 29.0042L8.1025 43.8773H16.6999C17.3315 43.8799 17.9512 43.7049 18.4878 43.3723C19.0245 43.0397 19.4564 42.563 19.7343 41.9967L24.875 31.5159C25.2553 30.733 25.4471 29.8724 25.4352 29.0024C25.4234 28.1325 25.2082 27.2774 24.8067 26.5052L13.1294 3.72602C12.6372 2.76426 11.8884 1.95691 10.9656 1.39301C10.0429 0.829103 8.98211 0.530549 7.90021 0.530273Z" fill="white"/>
<path d="M27.9371 1.88059L23.4059 9.66144C23.0228 10.4408 22.8272 11.2987 22.8347 12.1668C22.8421 13.0349 23.0525 13.8893 23.4489 14.662L27.6338 22.8306L39.5461 0H30.9488C30.321 0.00191223 29.7064 0.179034 29.1742 0.511355C28.642 0.843676 28.2135 1.31795 27.9371 1.88059Z" fill="white"/>
<path d="M92.5711 20.8697L91.1778 16.1443H84.6848L83.2915 20.8697H79L85.4094 1H90.6483L96.9741 20.8697H92.5711ZM87.9731 4.9284H87.8338L85.688 12.4721H90.1467L87.9731 4.9284Z" fill="white"/>
<path d="M99.6652 20.8697V1H103.901V17.0267H111.314V20.8697H99.6652Z" fill="white"/>
<path d="M114.442 20.8697V1H127.679V4.843H118.678V8.91373H126.397V12.7283H118.678V17.0267H127.679V20.8697H114.442Z" fill="white"/>
<path d="M147.532 20.8697H142.627L138.419 13.5538H138.336L134.239 20.8697H129.669L135.911 10.5933L129.976 1H134.908L138.698 7.71813H138.782L142.627 1H147.197L141.206 10.6787L147.532 20.8697Z" fill="white"/>
<path d="M161.47 20.8697V13.0983L154.81 1H159.547L163.727 8.91373H163.783L167.796 1H172.394L165.734 13.0699V20.8697H161.47Z" fill="white"/>
<path d="M184.825 20.8697L183.432 16.1443H176.939L175.546 20.8697H171.254L177.664 1H182.903L189.228 20.8697H184.825ZM180.227 4.9284H180.088L177.942 12.4721H182.401L180.227 4.9284Z" fill="white"/>
<path d="M197.855 11.4757L195.988 7.49039H195.904V20.8697H191.92V1H196.545L201.868 10.394L203.735 14.3793H203.819V1H207.804V20.8697H203.178L197.855 11.4757Z" fill="white"/>
<path d="M218.856 12.2159L216.321 15.3472V20.8697H212.085V1H216.321V10.4509H216.488L219.247 6.60793L223.622 1H228.415L221.866 9.16993L229 20.8697H224.012L218.856 12.2159Z" fill="white"/>
<path d="M83.0366 42.1337C81.9204 42.1337 81.0385 41.8127 80.3911 41.1707C79.7436 40.5287 79.4199 39.6459 79.4199 38.5223V32.8472C79.4199 31.7237 79.7436 30.8409 80.3911 30.1989C81.0385 29.5569 81.9204 29.2358 83.0366 29.2358C84.1306 29.2358 85.0012 29.5626 85.6487 30.2161C86.2961 30.8581 86.6198 31.7352 86.6198 32.8472H85.1129C85.1129 32.1364 84.9287 31.5919 84.5603 31.2135C84.2031 30.8237 83.6952 30.6288 83.0366 30.6288C82.378 30.6288 81.859 30.818 81.4794 31.1963C81.1111 31.5747 80.9269 32.1192 80.9269 32.8301V38.5223C80.9269 39.2331 81.1111 39.7834 81.4794 40.1732C81.859 40.5516 82.378 40.7408 83.0366 40.7408C83.6952 40.7408 84.2031 40.5516 84.5603 40.1732C84.9287 39.7834 85.1129 39.2331 85.1129 38.5223H86.6198C86.6198 39.6344 86.2961 40.5172 85.6487 41.1707C85.0012 41.8127 84.1306 42.1337 83.0366 42.1337Z" fill="white"/>
<path d="M93.8467 42.1337C92.7527 42.1337 91.8876 41.8127 91.2514 41.1707C90.6151 40.5287 90.2969 39.6459 90.2969 38.5223V32.8472C90.2969 31.7237 90.6151 30.8409 91.2514 30.1989C91.8876 29.5569 92.7527 29.2358 93.8467 29.2358C94.9406 29.2358 95.8057 29.5569 96.442 30.1989C97.0783 30.8294 97.3964 31.7065 97.3964 32.8301V38.5223C97.3964 39.6459 97.0783 40.5287 96.442 41.1707C95.8057 41.8127 94.9406 42.1337 93.8467 42.1337ZM93.8467 40.7408C94.5053 40.7408 95.0076 40.5516 95.3536 40.1732C95.7108 39.7834 95.8894 39.2331 95.8894 38.5223V32.8472C95.8894 32.1364 95.7108 31.5919 95.3536 31.2135C95.0076 30.8237 94.5053 30.6288 93.8467 30.6288C93.1992 30.6288 92.6969 30.8237 92.3397 31.2135C91.9825 31.5919 91.8039 32.1364 91.8039 32.8472V38.5223C91.8039 39.2331 91.9825 39.7834 92.3397 40.1732C92.6969 40.5516 93.1992 40.7408 93.8467 40.7408Z" fill="white"/>
<path d="M101.241 41.9618V29.4078H104.406C105.198 29.4078 105.879 29.5626 106.448 29.8721C107.029 30.1817 107.475 30.6173 107.788 31.1791C108.112 31.7409 108.273 32.4059 108.273 33.174V38.1784C108.273 38.9465 108.112 39.6172 107.788 40.1904C107.475 40.7522 107.029 41.1879 106.448 41.4974C105.879 41.807 105.198 41.9618 104.406 41.9618H101.241ZM102.748 40.586H104.406C105.142 40.586 105.717 40.3739 106.13 39.9497C106.554 39.5255 106.766 38.9351 106.766 38.1784V33.174C106.766 32.4288 106.554 31.8441 106.13 31.4199C105.717 30.9957 105.142 30.7836 104.406 30.7836H102.748V40.586Z" fill="white"/>
<path d="M112.252 41.9618V29.4078H119.284V30.818H113.742V34.7045H118.698V36.0803H113.742V40.5516H119.284V41.9618H112.252Z" fill="white"/>
<path d="M122.995 41.9618V29.4078H126.779C127.505 29.4078 128.141 29.5626 128.688 29.8721C129.235 30.1702 129.659 30.5887 129.96 31.1275C130.262 31.6664 130.413 32.2969 130.413 33.0192C130.413 33.8676 130.195 34.5956 129.76 35.2033C129.335 35.8109 128.755 36.2294 128.018 36.4587L130.58 41.9618H128.805L126.461 36.6306H124.502V41.9618H122.995ZM124.502 35.2377H126.779C127.404 35.2377 127.907 35.037 128.286 34.6358C128.666 34.223 128.855 33.6842 128.855 33.0192C128.855 32.3428 128.666 31.804 128.286 31.4027C127.907 31.0014 127.404 30.8008 126.779 30.8008H124.502V35.2377Z" fill="white"/>
</svg>
