<svg width="58" height="80" viewBox="0 0 58 80" fill="none" xmlns="http://www.w3.org/2000/svg">
<path d="M33.675 1.46837e-07H23.8281L44.0827 37.8278L33.9554 57.5761H45.8813C46.7546 57.5756 47.6103 57.3411 48.351 56.8991C49.0918 56.4571 49.6878 55.8255 50.0714 55.076L57.2076 41.1531C57.7387 40.1172 58.0097 38.9773 57.9991 37.824C57.9884 36.6706 57.6965 35.5355 57.1464 34.5087L40.9369 4.24277C40.2529 2.9653 39.2129 1.89309 37.9315 1.14442C36.6501 0.395757 35.1771 -0.000278403 33.675 1.46837e-07V1.46837e-07Z" fill="#1C2636"/>
<path d="M24.328 79.9997H34.1652L13.9202 42.1811L24.0475 22.4082H12.1217C11.2483 22.4087 10.3927 22.6433 9.65192 23.0852C8.91119 23.5272 8.31514 24.1588 7.93154 24.9083L0.792147 38.8343C0.26132 39.8696 -0.00979972 41.0088 0.000270612 42.1615C0.0103409 43.3143 0.301325 44.4489 0.850164 45.4756L17.0629 75.7415C17.7454 77.0219 18.7852 78.0972 20.0672 78.8486C21.3493 79.6 22.8238 79.9984 24.328 79.9997Z" fill="#1C2636"/>
</svg>
