<svg width="64" height="64" viewBox="0 0 64 64" fill="none" xmlns="http://www.w3.org/2000/svg">
<path d="M28.4352 18.6181L26.3828 12.9529H37.6177L35.5709 18.6181H37.7873L40.7275 10.4727H23.2729L26.2188 18.6181H28.4352Z" fill="url(#paint0_linear_123_7912)"/>
<path d="M35.5709 45.3818L37.6177 50.2418H26.3828L28.4352 45.3818H26.2188L23.2729 52.3637H40.7275L37.7873 45.3818H35.5709Z" fill="url(#paint1_linear_123_7912)"/>
<path d="M11.6362 40.7273L18.618 37.7871V35.5706L13.7622 37.6174V26.3825L18.618 28.435V26.2185L11.6362 23.2727V40.7273Z" fill="url(#paint2_linear_123_7912)"/>
<path d="M45.3818 28.435L51.0518 26.3825V37.6174L45.3818 35.5706V37.7871L53.5273 40.7273V23.2727L45.3818 26.2185V28.435Z" fill="url(#paint3_linear_123_7912)"/>
<path d="M39.5635 22.8937L41.0825 24.4364L44.9757 20.4668C45.9325 19.4973 44.8979 17.4546 44.8979 17.4546L39.5635 22.8937Z" fill="url(#paint4_linear_123_7912)"/>
<path d="M22.9223 24.4364L24.4363 22.8937L19.1042 17.4546C19.1042 17.4546 18.0689 19.4973 19.0204 20.4668L22.9223 24.4364Z" fill="url(#paint5_linear_123_7912)"/>
<path d="M41.0825 39.5637L39.5635 41.1064L44.8979 46.5455C44.8979 46.5455 45.9325 44.5028 44.9757 43.5333L41.0825 39.5637Z" fill="url(#paint6_linear_123_7912)"/>
<path d="M22.9223 39.5637L19.0204 43.5333C18.0689 44.5028 19.1042 46.5455 19.1042 46.5455L24.4363 41.1064L22.9223 39.5637Z" fill="url(#paint7_linear_123_7912)"/>
<path d="M32 0C25.671 0 19.4841 1.87677 14.2218 5.39297C8.95939 8.90918 4.85787 13.9069 2.43587 19.7541C0.0138651 25.6014 -0.619841 32.0355 0.614885 38.2429C1.84961 44.4503 4.89732 50.1521 9.37259 54.6274C13.8479 59.1027 19.5497 62.1504 25.7571 63.3851C31.9645 64.6198 38.3986 63.9861 44.2459 61.5641C50.0931 59.1421 55.0908 55.0406 58.607 49.7782C62.1232 44.5159 64 38.329 64 32C63.9905 23.516 60.616 15.3822 54.6169 9.38311C48.6178 3.38401 40.484 0.00952903 32 0V0ZM32 61.8699C26.0923 61.8699 20.3173 60.118 15.4052 56.8359C10.4931 53.5537 6.66463 48.8887 4.40385 43.4307C2.14308 37.9727 1.55155 31.9669 2.70409 26.1727C3.85662 20.3785 6.70145 15.0562 10.8788 10.8788C15.0562 6.70144 20.3785 3.85661 26.1727 2.70407C31.9669 1.55154 37.9727 2.14306 43.4307 4.40384C48.8887 6.66462 53.5537 10.4931 56.8359 15.4052C60.118 20.3173 61.8699 26.0923 61.8699 32C61.8619 39.9195 58.7124 47.5124 53.1124 53.1124C47.5125 58.7124 39.9195 61.8619 32 61.8699Z" fill="url(#paint8_linear_123_7912)"/>
<path d="M37.6342 26.7287L39.2204 25.2404C37.6463 23.559 35.5347 22.4796 33.2499 22.1885C30.9651 21.8974 28.6503 22.4128 26.7049 23.6458C24.7594 24.8788 23.3053 26.7521 22.5933 28.9426C21.8813 31.1331 21.9561 33.5034 22.8048 35.6446C23.6535 37.7858 25.2229 39.5637 27.2423 40.6716C29.2616 41.7795 31.6043 42.1479 33.8662 41.7132C36.1281 41.2786 38.1674 40.0682 39.6323 38.2908C41.0973 36.5135 41.896 34.2805 41.8907 31.9773V30.9177H36.146L33.0225 24.3585C34.7893 24.5861 36.4207 25.4246 37.6342 26.7287ZM30.9709 24.3585L25.4222 35.9949C24.7577 34.9017 24.376 33.6604 24.3113 32.3828C24.2466 31.1053 24.501 29.8317 25.0516 28.6771C25.6022 27.5224 26.4316 26.523 27.465 25.7691C28.4984 25.0151 29.7033 24.5304 30.9709 24.3585ZM26.9655 37.8322L29.2254 33.0858H34.7741L37.034 37.8444C35.636 39.0545 33.8488 39.7206 31.9998 39.7206C30.1507 39.7206 28.3636 39.0545 26.9655 37.8444V37.8322ZM39.643 33.0797C39.4921 34.1229 39.1272 35.1238 38.5712 36.0194L37.1749 33.0797H39.643ZM30.2604 30.9177L31.9998 27.2431L33.7391 30.9177H30.2604Z" fill="url(#paint9_linear_123_7912)"/>
<defs>
<linearGradient id="paint0_linear_123_7912" x1="11.0429" y1="0.144028" x2="71.2257" y2="26.0345" gradientUnits="userSpaceOnUse">
<stop stop-color="#B22332"/>
<stop offset="1" stop-color="#6B172A"/>
</linearGradient>
<linearGradient id="paint1_linear_123_7912" x1="-131.025" y1="402.362" x2="676.208" y2="1463.28" gradientUnits="userSpaceOnUse">
<stop stop-color="#B22332"/>
<stop offset="1" stop-color="#6B172A"/>
</linearGradient>
<linearGradient id="paint2_linear_123_7912" x1="-13.9172" y1="743.796" x2="829.354" y2="921.086" gradientUnits="userSpaceOnUse">
<stop stop-color="#B22332"/>
<stop offset="1" stop-color="#6B172A"/>
</linearGradient>
<linearGradient id="paint3_linear_123_7912" x1="135.715" y1="254.022" x2="1104.78" y2="491.761" gradientUnits="userSpaceOnUse">
<stop stop-color="#B22332"/>
<stop offset="1" stop-color="#6B172A"/>
</linearGradient>
<linearGradient id="paint4_linear_123_7912" x1="129.745" y1="51.107" x2="745.432" y2="320.831" gradientUnits="userSpaceOnUse">
<stop stop-color="#B22332"/>
<stop offset="1" stop-color="#6B172A"/>
</linearGradient>
<linearGradient id="paint5_linear_123_7912" x1="61.5563" y1="159.046" x2="677.23" y2="428.712" gradientUnits="userSpaceOnUse">
<stop stop-color="#B22332"/>
<stop offset="1" stop-color="#6B172A"/>
</linearGradient>
<linearGradient id="paint6_linear_123_7912" x1="39.8544" y1="278.482" x2="655.541" y2="548.205" gradientUnits="userSpaceOnUse">
<stop stop-color="#B22332"/>
<stop offset="1" stop-color="#6B172A"/>
</linearGradient>
<linearGradient id="paint7_linear_123_7912" x1="-28.3927" y1="386.351" x2="587.349" y2="656.071" gradientUnits="userSpaceOnUse">
<stop stop-color="#B22332"/>
<stop offset="1" stop-color="#6B172A"/>
</linearGradient>
<linearGradient id="paint8_linear_123_7912" x1="237.44" y1="1744" x2="6562.56" y2="5068.8" gradientUnits="userSpaceOnUse">
<stop stop-color="#B22332"/>
<stop offset="1" stop-color="#6B172A"/>
</linearGradient>
<linearGradient id="paint9_linear_123_7912" x1="95.4995" y1="561.164" x2="2050.54" y2="1588.83" gradientUnits="userSpaceOnUse">
<stop stop-color="#B22332"/>
<stop offset="1" stop-color="#6B172A"/>
</linearGradient>
</defs>
</svg>
