<svg width="64" height="64" viewBox="0 0 64 64" fill="none" xmlns="http://www.w3.org/2000/svg">
<path d="M0 23.04C0 10.3154 10.3154 0 23.04 0H40.96C53.6846 0 64 10.3154 64 23.04V40.96C64 53.6846 53.6846 64 40.96 64H23.04C10.3154 64 0 53.6846 0 40.96V23.04Z" fill="#FF6900"/>
<path d="M53.4767 18.7204C53.4767 18.4759 53.2719 18.2775 53.0249 18.2775H47.2047C46.9551 18.2775 46.7529 18.4759 46.7529 18.7204V45.2817C46.7529 45.5223 46.9551 45.722 47.2047 45.722H53.0249C53.2719 45.722 53.4767 45.5223 53.4767 45.2817V18.7204Z" fill="white"/>
<path d="M39.014 20.7441C36.751 18.4785 32.1609 18.2775 27.7705 18.2775H10.9718C10.7235 18.2775 10.5225 18.4759 10.5225 18.7204V45.2817C10.5225 45.5223 10.7235 45.722 10.9718 45.722H16.7945C17.0428 45.722 17.2476 45.5223 17.2476 45.2817V24.4343C17.2476 24.1937 17.4499 23.994 17.6982 23.994H28.2454C30.319 24.0452 32.3132 24.2909 33.382 25.3623C34.6236 26.6077 34.7619 29.082 34.7683 31.4897V45.2817C34.7683 45.5223 34.9718 45.722 35.2214 45.722H41.039C41.2886 45.722 41.4908 45.5223 41.4908 45.2817L41.4905 31.7229C41.4815 27.4124 41.2412 22.9737 39.014 20.7441Z" fill="white"/>
<path d="M29.5215 29.2957C29.5215 29.0538 29.3206 28.8554 29.0735 28.8554H22.9603C22.7094 28.8554 22.5071 29.0538 22.5071 29.2957V45.2817C22.5071 45.5223 22.7094 45.722 22.9603 45.722H29.0735C29.3206 45.722 29.5215 45.5223 29.5215 45.2817V29.2957Z" fill="white"/>
</svg>
