<svg width="64" height="64" viewBox="0 0 64 64" fill="none" xmlns="http://www.w3.org/2000/svg">
<path d="M31.9807 64C25.2724 64 19.8169 58.8611 19.8169 52.5444C19.8169 46.2278 25.2724 41.0889 31.9807 41.0889C38.6891 41.0889 44.1445 46.2278 44.1445 52.5444C44.1445 58.8611 38.6891 64 31.9807 64ZM31.9807 43.3076C26.5673 43.3076 22.1683 47.4496 22.1683 52.5444C22.1683 57.6392 26.572 61.7812 31.9807 61.7812C37.3895 61.7812 41.7931 57.6392 41.7931 52.5444C41.7931 47.454 37.3941 43.3076 31.9807 43.3076Z" fill="white"/>
<path d="M10.1724 34.1498C10.1724 45.4951 19.9427 54.6966 31.999 54.6966C44.0506 54.6966 53.8256 45.4995 53.8256 34.1498C53.8256 22.8045 44.0553 13.603 31.999 13.603C19.9427 13.6074 10.1724 22.8045 10.1724 34.1498Z" fill="url(#paint0_linear_123_7903)"/>
<path d="M32 43.3079C19.3173 43.3079 9 33.5947 9 21.654C9 9.71318 19.3173 0 32 0C44.6827 0 55 9.71318 55 21.654C55 33.5947 44.6827 43.3079 32 43.3079ZM32 2.21877C20.6122 2.21877 11.3514 10.9395 11.3514 21.654C11.3514 32.3729 20.6169 41.0892 32 41.0892C43.3878 41.0892 52.6486 32.3685 52.6486 21.654C52.6486 10.9395 43.3831 2.21877 32 2.21877Z" fill="white"/>
<defs>
<linearGradient id="paint0_linear_123_7903" x1="31.9978" y1="15.8342" x2="31.9978" y2="50.0248" gradientUnits="userSpaceOnUse">
<stop stop-color="#A10912"/>
<stop offset="1" stop-color="#E89515"/>
</linearGradient>
</defs>
</svg>
